<svg xmlns="http://www.w3.org/2000/svg" viewBox="0 0 600 820" width="600" height="820" font-family="Arial, Helvetica, sans-serif">
  <!-- Background -->
  <rect width="600" height="820" fill="white" stroke="black" stroke-width="2"/>

  <!-- Top section with G logo and postage box -->
  <!-- G Logo box -->
  <rect x="30" y="20" width="120" height="120" fill="white" stroke="black" stroke-width="3"/>
  <text x="90" y="120" text-anchor="middle" font-size="100" font-weight="bold" font-family="Arial Black, Arial, sans-serif" fill="black">G</text>

  <!-- USPS Ground Advantage postage box -->
  <rect x="390" y="20" width="180" height="100" fill="white" stroke="black" stroke-width="2"/>
  <text x="480" y="42" text-anchor="middle" font-size="11" font-weight="bold">USPS GROUND</text>
  <text x="480" y="56" text-anchor="middle" font-size="11" font-weight="bold">ADVANTAGE</text>
  <text x="480" y="72" text-anchor="middle" font-size="10">U.S. POSTAGE PAID</text>
  <text x="480" y="86" text-anchor="middle" font-size="10">ATFM</text>
  <text x="480" y="100" text-anchor="middle" font-size="10">e-Postage</text>

  <!-- Divider line -->
  <line x1="30" y1="155" x2="570" y2="155" stroke="black" stroke-width="3"/>

  <!-- USPS GROUND ADVANTAGE heading -->
  <text x="300" y="190" text-anchor="middle" font-size="26" font-weight="bold" letter-spacing="2">USPS GROUND ADVANTAGE &#x2122;</text>

  <!-- Thin divider -->
  <line x1="30" y1="205" x2="570" y2="205" stroke="black" stroke-width="1"/>

  <!-- Sender info -->
  <text x="40" y="235" font-size="14" font-weight="bold">OSCAR CASTILLO</text>
  <text x="40" y="255" font-size="14" font-weight="bold">263 WEST OLIVE AVE</text>
  <text x="40" y="275" font-size="14" font-weight="bold">#235</text>
  <text x="40" y="295" font-size="14" font-weight="bold">BURBANK CA 91502</text>

  <!-- Date and mailing info -->
  <text x="560" y="235" text-anchor="end" font-size="13">02/24/26</text>
  <text x="560" y="255" text-anchor="end" font-size="13">Mailed From 91502</text>
  <text x="560" y="275" text-anchor="end" font-size="13">WT: 4.00 oz</text>

  <!-- Ship To section -->
  <text x="40" y="370" font-size="16" font-weight="bold">SHIP</text>
  <text x="40" y="390" font-size="16" font-weight="bold">TO:</text>

  <text x="120" y="370" font-size="24" font-weight="bold">H&#xC9;CTOR V&#xC1;ZQUEZ</text>
  <text x="120" y="405" font-size="24" font-weight="bold">ST. 8 4-Q 17 VILLA DEL REY</text>
  <text x="120" y="440" font-size="24" font-weight="bold">CAGUAS PR 00727</text>

  <!-- Thick black bar -->
  <rect x="0" y="510" width="600" height="20" fill="black"/>

  <!-- USPS TRACKING # EP -->
  <text x="300" y="570" text-anchor="middle" font-size="24" font-weight="bold">USPS TRACKING # EP</text>

  <!-- Barcode area -->
  <g transform="translate(100, 600)">
    <!-- Barcode bars - approximation of Code 128 for 9300 1109 9041 3237 9739 91 -->
    <!-- Start pattern -->
    <rect x="0" y="0" width="3" height="120" fill="black"/>
    <rect x="5" y="0" width="1" height="120" fill="black"/>
    <rect x="8" y="0" width="2" height="120" fill="black"/>
    <rect x="12" y="0" width="4" height="120" fill="black"/>
    <rect x="18" y="0" width="1" height="120" fill="black"/>
    <rect x="21" y="0" width="3" height="120" fill="black"/>
    <rect x="26" y="0" width="1" height="120" fill="black"/>
    <rect x="29" y="0" width="2" height="120" fill="black"/>
    <rect x="33" y="0" width="4" height="120" fill="black"/>
    <rect x="39" y="0" width="1" height="120" fill="black"/>
    <rect x="42" y="0" width="2" height="120" fill="black"/>
    <rect x="46" y="0" width="1" height="120" fill="black"/>
    <rect x="49" y="0" width="3" height="120" fill="black"/>
    <rect x="54" y="0" width="2" height="120" fill="black"/>
    <rect x="58" y="0" width="1" height="120" fill="black"/>
    <rect x="61" y="0" width="4" height="120" fill="black"/>
    <rect x="67" y="0" width="1" height="120" fill="black"/>
    <rect x="70" y="0" width="2" height="120" fill="black"/>
    <rect x="74" y="0" width="3" height="120" fill="black"/>
    <rect x="79" y="0" width="1" height="120" fill="black"/>
    <rect x="82" y="0" width="2" height="120" fill="black"/>
    <rect x="86" y="0" width="4" height="120" fill="black"/>
    <rect x="92" y="0" width="1" height="120" fill="black"/>
    <rect x="95" y="0" width="3" height="120" fill="black"/>
    <rect x="100" y="0" width="2" height="120" fill="black"/>
    <rect x="104" y="0" width="1" height="120" fill="black"/>
    <rect x="107" y="0" width="4" height="120" fill="black"/>
    <rect x="113" y="0" width="2" height="120" fill="black"/>
    <rect x="117" y="0" width="1" height="120" fill="black"/>
    <rect x="120" y="0" width="3" height="120" fill="black"/>
    <rect x="125" y="0" width="1" height="120" fill="black"/>
    <rect x="128" y="0" width="2" height="120" fill="black"/>
    <rect x="132" y="0" width="4" height="120" fill="black"/>
    <rect x="138" y="0" width="1" height="120" fill="black"/>
    <rect x="141" y="0" width="3" height="120" fill="black"/>
    <rect x="146" y="0" width="2" height="120" fill="black"/>
    <rect x="150" y="0" width="1" height="120" fill="black"/>
    <rect x="153" y="0" width="4" height="120" fill="black"/>
    <rect x="159" y="0" width="2" height="120" fill="black"/>
    <rect x="163" y="0" width="1" height="120" fill="black"/>
    <rect x="166" y="0" width="3" height="120" fill="black"/>
    <rect x="171" y="0" width="1" height="120" fill="black"/>
    <rect x="174" y="0" width="2" height="120" fill="black"/>
    <rect x="178" y="0" width="4" height="120" fill="black"/>
    <rect x="184" y="0" width="1" height="120" fill="black"/>
    <rect x="187" y="0" width="3" height="120" fill="black"/>
    <rect x="192" y="0" width="2" height="120" fill="black"/>
    <rect x="196" y="0" width="1" height="120" fill="black"/>
    <rect x="199" y="0" width="4" height="120" fill="black"/>
    <rect x="205" y="0" width="1" height="120" fill="black"/>
    <rect x="208" y="0" width="2" height="120" fill="black"/>
    <rect x="212" y="0" width="3" height="120" fill="black"/>
    <rect x="217" y="0" width="1" height="120" fill="black"/>
    <rect x="220" y="0" width="4" height="120" fill="black"/>
    <rect x="226" y="0" width="2" height="120" fill="black"/>
    <rect x="230" y="0" width="1" height="120" fill="black"/>
    <rect x="233" y="0" width="3" height="120" fill="black"/>
    <rect x="238" y="0" width="1" height="120" fill="black"/>
    <rect x="241" y="0" width="2" height="120" fill="black"/>
    <rect x="245" y="0" width="4" height="120" fill="black"/>
    <rect x="251" y="0" width="1" height="120" fill="black"/>
    <rect x="254" y="0" width="3" height="120" fill="black"/>
    <rect x="259" y="0" width="2" height="120" fill="black"/>
    <rect x="263" y="0" width="1" height="120" fill="black"/>
    <rect x="266" y="0" width="4" height="120" fill="black"/>
    <rect x="272" y="0" width="2" height="120" fill="black"/>
    <rect x="276" y="0" width="1" height="120" fill="black"/>
    <rect x="279" y="0" width="3" height="120" fill="black"/>
    <rect x="284" y="0" width="1" height="120" fill="black"/>
    <rect x="287" y="0" width="2" height="120" fill="black"/>
    <rect x="291" y="0" width="4" height="120" fill="black"/>
    <rect x="297" y="0" width="1" height="120" fill="black"/>
    <rect x="300" y="0" width="3" height="120" fill="black"/>
    <rect x="305" y="0" width="2" height="120" fill="black"/>
    <rect x="309" y="0" width="1" height="120" fill="black"/>
    <rect x="312" y="0" width="4" height="120" fill="black"/>
    <rect x="318" y="0" width="2" height="120" fill="black"/>
    <rect x="322" y="0" width="1" height="120" fill="black"/>
    <rect x="325" y="0" width="3" height="120" fill="black"/>
    <rect x="330" y="0" width="1" height="120" fill="black"/>
    <rect x="333" y="0" width="2" height="120" fill="black"/>
    <rect x="337" y="0" width="4" height="120" fill="black"/>
    <rect x="343" y="0" width="1" height="120" fill="black"/>
    <rect x="346" y="0" width="3" height="120" fill="black"/>
    <rect x="351" y="0" width="2" height="120" fill="black"/>
    <rect x="355" y="0" width="1" height="120" fill="black"/>
    <rect x="358" y="0" width="2" height="120" fill="black"/>
    <rect x="362" y="0" width="4" height="120" fill="black"/>
    <rect x="368" y="0" width="1" height="120" fill="black"/>
    <rect x="371" y="0" width="3" height="120" fill="black"/>
    <rect x="376" y="0" width="2" height="120" fill="black"/>
    <rect x="380" y="0" width="1" height="120" fill="black"/>
    <rect x="383" y="0" width="4" height="120" fill="black"/>
    <rect x="389" y="0" width="2" height="120" fill="black"/>
    <rect x="393" y="0" width="1" height="120" fill="black"/>
    <rect x="396" y="0" width="3" height="120" fill="black"/>
  </g>

  <!-- Tracking number text -->
  <text x="300" y="760" text-anchor="middle" font-size="18" letter-spacing="2">9300 1109 9041 3237 9739 91</text>
</svg>